<svg xmlns="http://www.w3.org/2000/svg" xmlns:xlink="http://www.w3.org/1999/xlink" width="682.665" height="682.665" viewBox="0 0 682.665 682.665">
  <defs>
    <clipPath id="clip-path">
      <path id="Path_1484" data-name="Path 1484" d="M0-682.665H682.665V0H0Z"/>
    </clipPath>
  </defs>
  <g id="svgexport-20" transform="translate(0 -0.002)">
    <path id="Path_1456" data-name="Path 1456" d="M314.666-13.333H368V-569.8H314.666Z" transform="translate(0 682.667)" fill="#c1b0b5"/>
    <path id="Path_1457" data-name="Path 1457" d="M0,0-53.333,53.333h-248V-53.333h248Z" transform="translate(669.333 200)" fill="#d8ec84"/>
    <path id="Path_1458" data-name="Path 1458" d="M0,0-53.333,53.333h-248V-53.333h248Z" transform="translate(669.333 360)" fill="#ff9256"/>
    <g id="Group_1181" data-name="Group 1181" transform="translate(0 682.667)" clip-path="url(#clip-path)">
      <path id="Path_1459" data-name="Path 1459" d="M0,0-5.627,2.813A86.3,86.3,0,0,0-53.333,80h-53.333l1.373-4.107A110.992,110.992,0,0,1,0,0" transform="translate(527.999 -93.333)" fill="#d8ec84"/>
      <path id="Path_1460" data-name="Path 1460" d="M0,0-2.813,5.627a225.823,225.823,0,0,0-23.853,101.04H-80A110.992,110.992,0,0,1-4.107,1.373Z" transform="translate(447.999 -120)" fill="#d8ec84"/>
      <path id="Path_1461" data-name="Path 1461" d="M0,0A53.336,53.336,0,0,1,53.333,53.333,53.333,53.333,0,0,1,0,106.666,53.332,53.332,0,0,1-53.333,53.333,53.336,53.336,0,0,1,0,0" transform="translate(341.332 -669.332)" fill="#f3eff0"/>
      <path id="Path_1462" data-name="Path 1462" d="M0,0V106.666H-248l-53.333-53.333L-248,0Z" transform="translate(314.666 -455.999)" fill="#ff9256"/>
      <path id="Path_1463" data-name="Path 1463" d="M0,0H-53.333A225.823,225.823,0,0,0-77.186-101.04L-80-106.666l4.107,1.373A110.992,110.992,0,0,1,0,0" transform="translate(314.666 -13.333)" fill="#d8ec84"/>
      <path id="Path_1464" data-name="Path 1464" d="M0,0,1.373,4.107H-51.96A86.3,86.3,0,0,0-99.666-73.08l-5.627-2.813A110.992,110.992,0,0,1,0,0" transform="translate(259.959 -17.44)" fill="#d8ec84"/>
      <path id="Path_1465" data-name="Path 1465" d="M0,0A13.338,13.338,0,0,1,13.333,13.333,13.338,13.338,0,0,1,0,26.667,13.333,13.333,0,1,1,0,0" transform="translate(421.332 -495.999)"/>
      <path id="Path_1466" data-name="Path 1466" d="M0,0A13.338,13.338,0,0,1,13.333,13.333,13.338,13.338,0,0,1,0,26.667,13.333,13.333,0,1,1,0,0" transform="translate(421.332 -335.999)"/>
      <path id="Path_1467" data-name="Path 1467" d="M0,0A13.338,13.338,0,0,1,13.333,13.333,13.338,13.338,0,0,1,0,26.667,13.333,13.333,0,1,1,0,0" transform="translate(93.333 -415.999)"/>
      <path id="Path_1468" data-name="Path 1468" d="M0,0V556.465" transform="translate(367.999 -569.799)" fill="none" stroke="#000" stroke-linecap="round" stroke-linejoin="round" stroke-width="26.667"/>
      <path id="Path_1469" data-name="Path 1469" d="M0,0V-556.465" transform="translate(314.666 -13.333)" fill="none" stroke="#000" stroke-linecap="round" stroke-linejoin="round" stroke-width="26.667"/>
      <path id="Path_1470" data-name="Path 1470" d="M0,0A53.321,53.321,0,0,1-26.667-46.2,53.336,53.336,0,0,1,26.667-99.533,53.336,53.336,0,0,1,80-46.2,53.321,53.321,0,0,1,53.333,0,53.192,53.192,0,0,1,26.667,7.133,53.192,53.192,0,0,1,0,0Z" transform="translate(314.666 -569.799)" fill="none" stroke="#000" stroke-linecap="round" stroke-linejoin="round" stroke-width="26.667"/>
      <path id="Path_1471" data-name="Path 1471" d="M0,0H248l53.333,53.333L248,106.666H0" transform="translate(367.999 -535.999)" fill="none" stroke="#000" stroke-linecap="round" stroke-linejoin="round" stroke-width="26.667"/>
      <path id="Path_1472" data-name="Path 1472" d="M0,0H-248l-53.333,53.333L-248,106.666H0" transform="translate(314.666 -455.999)" fill="none" stroke="#000" stroke-linecap="round" stroke-linejoin="round" stroke-width="26.667"/>
      <path id="Path_1473" data-name="Path 1473" d="M0,0H114.666" transform="translate(474.665 -482.665)" fill="none" stroke="#000" stroke-linecap="round" stroke-linejoin="round" stroke-width="26.667"/>
      <path id="Path_1474" data-name="Path 1474" d="M0,0H114.666" transform="translate(146.666 -402.666)" fill="none" stroke="#000" stroke-linecap="round" stroke-linejoin="round" stroke-width="26.667"/>
      <path id="Path_1475" data-name="Path 1475" d="M0,0H114.666" transform="translate(474.665 -322.666)" fill="none" stroke="#000" stroke-linecap="round" stroke-linejoin="round" stroke-width="26.667"/>
      <path id="Path_1476" data-name="Path 1476" d="M0,0A225.823,225.823,0,0,1,23.853-101.04l2.813-5.627-4.107,1.373A110.992,110.992,0,0,0-53.333,0" transform="translate(421.332 -13.333)" fill="none" stroke="#000" stroke-linecap="round" stroke-linejoin="round" stroke-width="26.667"/>
      <path id="Path_1477" data-name="Path 1477" d="M0,0A225.823,225.823,0,0,0-23.853-101.04l-2.813-5.627,4.107,1.373A110.992,110.992,0,0,1,53.333,0" transform="translate(261.333 -13.333)" fill="none" stroke="#000" stroke-linecap="round" stroke-linejoin="round" stroke-width="26.667"/>
      <path id="Path_1478" data-name="Path 1478" d="M0,0A86.3,86.3,0,0,0-47.707-77.186L-53.333-80A110.992,110.992,0,0,1,51.96-4.107L53.333,0" transform="translate(207.999 -13.333)" fill="none" stroke="#000" stroke-linecap="round" stroke-linejoin="round" stroke-width="26.667"/>
      <path id="Path_1479" data-name="Path 1479" d="M0,0A86.3,86.3,0,0,1,47.707-77.186L53.333-80A110.992,110.992,0,0,0-51.96-4.107L-53.333,0" transform="translate(474.665 -13.333)" fill="none" stroke="#000" stroke-linecap="round" stroke-linejoin="round" stroke-width="26.667"/>
      <path id="Path_1480" data-name="Path 1480" d="M0,0H426.666" transform="translate(128 -13.333)" fill="none" stroke="#000" stroke-linecap="round" stroke-linejoin="round" stroke-width="26.667"/>
      <path id="Path_1481" data-name="Path 1481" d="M0,0A13.334,13.334,0,0,1-13.333,13.333,13.334,13.334,0,0,1-26.667,0,13.334,13.334,0,0,1-13.333-13.333,13.334,13.334,0,0,1,0,0" transform="translate(514.665 -269.333)"/>
      <path id="Path_1482" data-name="Path 1482" d="M0,0H248l53.333,53.333L248,106.666H193.333" transform="translate(367.999 -375.999)" fill="none" stroke="#000" stroke-linecap="round" stroke-linejoin="round" stroke-width="26.667"/>
      <path id="Path_1483" data-name="Path 1483" d="M0,0H-73.333" transform="translate(441.332 -269.333)" fill="none" stroke="#000" stroke-linecap="round" stroke-linejoin="round" stroke-width="26.667"/>
    </g>
  </g>
</svg>
